<mxfile host="drawio-plugin" modified="2022-06-27T09:04:45.517Z" agent="5.0 (X11; Linux x86_64) AppleWebKit/537.36 (KHTML, like Gecko) Chrome/97.0.4692.45 Safari/537.36" etag="iMKXQxyV9M8COiZiHZXP" version="15.5.4" type="embed"><diagram id="23iRSUPoRavnBvh4doch" name="Page-1"><mxGraphModel dx="900" dy="694" grid="1" gridSize="10" guides="1" tooltips="1" connect="1" arrows="1" fold="1" page="1" pageScale="1" pageWidth="827" pageHeight="1169" math="0" shadow="0"><root><mxCell id="0"/><mxCell id="1" parent="0"/><mxCell id="7" value="enc cookie" style="edgeStyle=orthogonalEdgeStyle;rounded=0;orthogonalLoop=1;jettySize=auto;html=1;entryX=0;entryY=0.5;entryDx=0;entryDy=0;" edge="1" parent="1" source="2" target="5"><mxGeometry relative="1" as="geometry"><Array as="points"><mxPoint x="280" y="200"/><mxPoint x="280" y="200"/></Array></mxGeometry></mxCell><mxCell id="2" value="Browser" style="rounded=1;whiteSpace=wrap;html=1;" vertex="1" parent="1"><mxGeometry x="100" y="170" width="120" height="60" as="geometry"/></mxCell><mxCell id="3" value="Keycloak" style="rounded=1;whiteSpace=wrap;html=1;" vertex="1" parent="1"><mxGeometry x="360" y="50" width="120" height="60" as="geometry"/></mxCell><mxCell id="4" value="oxfake" style="rounded=1;whiteSpace=wrap;html=1;" vertex="1" parent="1"><mxGeometry x="590" y="170" width="120" height="60" as="geometry"/></mxCell><mxCell id="8" value="Bearer Token" style="edgeStyle=orthogonalEdgeStyle;rounded=0;orthogonalLoop=1;jettySize=auto;html=1;" edge="1" parent="1" source="5" target="4"><mxGeometry relative="1" as="geometry"/></mxCell><mxCell id="9" value="Token Exchange" style="edgeStyle=orthogonalEdgeStyle;rounded=0;orthogonalLoop=1;jettySize=auto;html=1;" edge="1" parent="1" source="5" target="3"><mxGeometry relative="1" as="geometry"/></mxCell><mxCell id="5" value="API Gateway / Intercom" style="rounded=1;whiteSpace=wrap;html=1;" vertex="1" parent="1"><mxGeometry x="360" y="170" width="120" height="60" as="geometry"/></mxCell><mxCell id="6" value="Auth" style="endArrow=classic;startArrow=classic;html=1;rounded=0;exitX=1;exitY=0.5;exitDx=0;exitDy=0;entryX=0;entryY=0.5;entryDx=0;entryDy=0;" edge="1" parent="1" source="2" target="3"><mxGeometry width="50" height="50" relative="1" as="geometry"><mxPoint x="370" y="330" as="sourcePoint"/><mxPoint x="420" y="280" as="targetPoint"/></mxGeometry></mxCell></root></mxGraphModel></diagram></mxfile>